# xmcd CD database file
# Copyright (C) 1997 Ti Kan
# 
# Track frame offsets:
#     212
#     15615
#     28605
#     51382
#     80807
#     103495
#     131047
#     146755
#     166795
#     193002
#     211225
#     237492
#     251702
#     274027
# 
# Disc length: 3982 seconds
# 
# Revision: 1
# Processed by: cddbd v1.4b41PL1 Copyright (c) Steve Scherf et al.
# Submitted via: DiscPlay 4.0.3
# 
DISCID=d30f8c0e
DTITLE=Big Dave And The Ultrasonics - Love and Money
DYEAR=1900
DGENRE=
TTITLE0=I Used To Be Free
TTITLE1=Midnight Shift
TTITLE2=Money And Love
TTITLE3=Full-Time Lover
TTITLE4=I Feel So Bad
TTITLE5=Walking The Beat
TTITLE6=12 O'Clock Jump
TTITLE7=Full Grown Man
TTITLE8=Just Move On
TTITLE9=Mean Old Frisco
TTITLE10=That's What Love Will Make You Do
TTITLE11=Empty Pockets
TTITLE12=Two Wrongs
TTITLE13=Too Late
EXTD=
EXTT0=
EXTT1=
EXTT2=
EXTT3=
EXTT4=
EXTT5=
EXTT6=
EXTT7=
EXTT8=
EXTT9=
EXTT10=
EXTT11=
EXTT12=
EXTT13=
PLAYORDER=
